<svg width="18" height="22" viewBox="0 0 18 22" fill="none" xmlns="http://www.w3.org/2000/svg"><path d="M6.05246 5.07254C5.79464 5.07254 5.58594 4.85156 5.58594 4.59375C5.58594 4.33594 5.79464 4.11495 6.05246 4.11495C6.32255 4.11495 6.53125 4.33594 6.53125 4.59375C6.53125 4.85156 6.32255 5.07254 6.05246 5.07254ZM11.2333 5.07254C10.9632 5.07254 10.7545 4.85156 10.7545 4.59375C10.7545 4.33594 10.9632 4.11495 11.2333 4.11495C11.4911 4.11495 11.6998 4.33594 11.6998 4.59375C11.6998 4.85156 11.4911 5.07254 11.2333 5.07254ZM1.26451 7.33147C0.564732 7.33147 0 7.8962 0 8.5837V13.8627C0 14.5625 0.564732 15.1272 1.26451 15.1272C1.96429 15.1272 2.51674 14.5625 2.51674 13.8627V8.5837C2.51674 7.8962 1.95201 7.33147 1.26451 7.33147ZM14.2779 7.56473H3.00781V15.7411C3.00781 16.49 3.60938 17.0915 4.35826 17.0915H5.26674L5.27902 19.8783C5.27902 20.5781 5.84375 21.1429 6.53125 21.1429C7.23103 21.1429 7.79576 20.5781 7.79576 19.8783V17.0915H9.48996V19.8783C9.48996 20.5781 10.0547 21.1429 10.7545 21.1429C11.4542 21.1429 12.019 20.5781 12.019 19.8783V17.0915H12.9397C13.6763 17.0915 14.2779 16.49 14.2779 15.7411V7.56473ZM11.4297 2.59263L12.3013 0.984374C12.3504 0.898436 12.3259 0.787946 12.24 0.738839C12.154 0.702008 12.0435 0.726561 11.9944 0.812499L11.1105 2.43303C10.3616 2.10156 9.52679 1.91741 8.64286 1.91741C7.75893 1.91741 6.92411 2.10156 6.17522 2.43303L5.29129 0.812499C5.24219 0.726561 5.1317 0.702008 5.04576 0.738839C4.95982 0.787946 4.93527 0.898436 4.98438 0.984374L5.85603 2.59263C4.125 3.47656 2.95871 5.17076 2.95871 7.12277H14.3147C14.3147 5.17076 13.1484 3.47656 11.4297 2.59263ZM17.2857 8.5837C17.2857 7.88393 16.721 7.33147 16.0212 7.33147C15.3337 7.33147 14.769 7.88393 14.769 8.5837V13.8627C14.769 14.5625 15.3337 15.1272 16.0212 15.1272C16.721 15.1272 17.2857 14.5625 17.2857 13.8627V8.5837Z" fill="#fff"/></svg>