<svg width="13" height="14" viewBox="0 0 13 14" fill="none" xmlns="http://www.w3.org/2000/svg"><path d="M7.69755 12.0357C7.69755 11.9375 7.64844 11.827 7.57478 11.7533L2.75 6.92857L7.57478 2.10379C7.64844 2.03013 7.69755 1.91964 7.69755 1.82143C7.69755 1.72321 7.64844 1.61272 7.57478 1.53906L6.96094 0.925222C6.88728 0.851562 6.77679 0.802454 6.67857 0.802454C6.58036 0.802454 6.46987 0.851562 6.39621 0.925222L0.675223 6.6462C0.601563 6.71987 0.552455 6.83036 0.552455 6.92857C0.552455 7.02679 0.601563 7.13728 0.675223 7.21094L6.39621 12.9319C6.46987 13.0056 6.58036 13.0547 6.67857 13.0547C6.77679 13.0547 6.88728 13.0056 6.96094 12.9319L7.57478 12.3181C7.64844 12.2444 7.69755 12.1339 7.69755 12.0357ZM12.4118 12.0357C12.4118 11.9375 12.3627 11.827 12.2891 11.7533L7.46429 6.92857L12.2891 2.10379C12.3627 2.03013 12.4118 1.91964 12.4118 1.82143C12.4118 1.72321 12.3627 1.61272 12.2891 1.53906L11.6752 0.925222C11.6016 0.851562 11.4911 0.802454 11.3929 0.802454C11.2946 0.802454 11.1842 0.851562 11.1105 0.925222L5.38951 6.6462C5.31585 6.71987 5.26674 6.83036 5.26674 6.92857C5.26674 7.02679 5.31585 7.13728 5.38951 7.21094L11.1105 12.9319C11.1842 13.0056 11.2946 13.0547 11.3929 13.0547C11.4911 13.0547 11.6016 13.0056 11.6752 12.9319L12.2891 12.3181C12.3627 12.2444 12.4118 12.1339 12.4118 12.0357Z" fill="#898989"/></svg>