<svg width="21" height="23" viewBox="0 0 21 23" fill="none" xmlns="http://www.w3.org/2000/svg"><path d="M1.57143 20.5714V17.0357H5.10714V20.5714H1.57143ZM5.89286 20.5714V17.0357H9.82143V20.5714H5.89286ZM1.57143 16.25V12.3214H5.10714V16.25H1.57143ZM5.89286 16.25V12.3214H9.82143V16.25H5.89286ZM1.57143 11.5357V8H5.10714V11.5357H1.57143ZM10.6071 20.5714V17.0357H14.5357V20.5714H10.6071ZM5.89286 11.5357V8H9.82143V11.5357H5.89286ZM15.3214 20.5714V17.0357H18.8571V20.5714H15.3214ZM10.6071 16.25V12.3214H14.5357V16.25H10.6071ZM6.28571 5.64286C6.28571 5.85156 6.10156 6.03571 5.89286 6.03571H5.10714C4.89844 6.03571 4.71429 5.85156 4.71429 5.64286V2.10714C4.71429 1.89844 4.89844 1.71428 5.10714 1.71428H5.89286C6.10156 1.71428 6.28571 1.89844 6.28571 2.10714V5.64286ZM15.3214 16.25V12.3214H18.8571V16.25H15.3214ZM10.6071 11.5357V8H14.5357V11.5357H10.6071ZM15.3214 11.5357V8H18.8571V11.5357H15.3214ZM15.7143 5.64286C15.7143 5.85156 15.5301 6.03571 15.3214 6.03571H14.5357C14.327 6.03571 14.1429 5.85156 14.1429 5.64286V2.10714C14.1429 1.89844 14.327 1.71428 14.5357 1.71428H15.3214C15.5301 1.71428 15.7143 1.89844 15.7143 2.10714V5.64286ZM20.4286 4.85714C20.4286 3.99777 19.7165 3.28571 18.8571 3.28571H17.2857V2.10714C17.2857 1.02678 16.4018 0.142856 15.3214 0.142856H14.5357C13.4554 0.142856 12.5714 1.02678 12.5714 2.10714V3.28571H7.85714V2.10714C7.85714 1.02678 6.97321 0.142856 5.89286 0.142856H5.10714C4.02679 0.142856 3.14286 1.02678 3.14286 2.10714V3.28571H1.57143C0.712054 3.28571 0 3.99777 0 4.85714V20.5714C0 21.4308 0.712054 22.1429 1.57143 22.1429H18.8571C19.7165 22.1429 20.4286 21.4308 20.4286 20.5714V4.85714Z" fill="#898989"/></svg>