<svg width="19" height="20" viewBox="0 0 19 20" fill="none" xmlns="http://www.w3.org/2000/svg"><path d="M4.45647 18H3.14286V16.4286H1.57143V15.115L2.68862 13.9978L5.57366 16.8828L4.45647 18ZM10.8772 6.60714C10.8772 6.6808 10.8527 6.75446 10.7913 6.81585L4.13728 13.4699C4.07589 13.5312 4.00223 13.5558 3.92857 13.5558C3.76897 13.5558 3.65848 13.4453 3.65848 13.2857C3.65848 13.2121 3.68304 13.1384 3.74442 13.077L10.3984 6.42299C10.4598 6.36161 10.5335 6.33705 10.6071 6.33705C10.7667 6.33705 10.8772 6.44754 10.8772 6.60714ZM10.2143 4.25L0 14.4643V19.5714H5.10714L15.3214 9.35714L10.2143 4.25ZM18.5993 5.42857C18.5993 5.01116 18.4275 4.60603 18.1451 4.31138L15.26 1.43862C14.9654 1.14397 14.5603 0.972097 14.1429 0.972097C13.7254 0.972097 13.3203 1.14397 13.0379 1.43862L11 3.46428L16.1071 8.57143L18.1451 6.53348C18.4275 6.25112 18.5993 5.84598 18.5993 5.42857Z" fill="#898989"/></svg>