<svg width="24" height="23" viewBox="0 0 24 23" fill="none" xmlns="http://www.w3.org/2000/svg"><path d="M7.28013 11.1429C6.64174 10.2221 6.28571 9.11719 6.28571 8C6.28571 7.72991 6.31027 7.45982 6.3471 7.18973C5.8192 7.37388 5.27902 7.4721 4.71429 7.4721C3.05692 7.4721 1.78013 6.42857 1.52232 6.42857C-0.0368304 6.42857 0 9.76786 0 10.7623C0 12.125 1.15402 12.7143 2.3817 12.7143H4.02679C4.84933 11.7321 6.00335 11.1797 7.28013 11.1429ZM20.4286 18.9632C20.4286 16.1886 19.7779 11.9286 16.1808 11.9286C15.7634 11.9286 14.2411 13.635 11.7857 13.635C9.33036 13.635 7.80804 11.9286 7.39063 11.9286C3.79353 11.9286 3.14286 16.1886 3.14286 18.9632C3.14286 20.952 4.45647 22.1429 6.42076 22.1429H17.1507C19.115 22.1429 20.4286 20.952 20.4286 18.9632ZM7.85714 3.28571C7.85714 1.55469 6.44531 0.142856 4.71429 0.142856C2.98326 0.142856 1.57143 1.55469 1.57143 3.28571C1.57143 5.01674 2.98326 6.42857 4.71429 6.42857C6.44531 6.42857 7.85714 5.01674 7.85714 3.28571ZM16.5 8C16.5 5.39732 14.3884 3.28571 11.7857 3.28571C9.18304 3.28571 7.07143 5.39732 7.07143 8C7.07143 10.6027 9.18304 12.7143 11.7857 12.7143C14.3884 12.7143 16.5 10.6027 16.5 8ZM23.5714 10.7623C23.5714 9.76786 23.6083 6.42857 22.0491 6.42857C21.7913 6.42857 20.5145 7.4721 18.8571 7.4721C18.2924 7.4721 17.7522 7.37388 17.2243 7.18973C17.2612 7.45982 17.2857 7.72991 17.2857 8C17.2857 9.11719 16.9297 10.2221 16.2913 11.1429C17.5681 11.1797 18.7221 11.7321 19.5446 12.7143H21.1897C22.4174 12.7143 23.5714 12.125 23.5714 10.7623ZM22 3.28571C22 1.55469 20.5882 0.142856 18.8571 0.142856C17.1261 0.142856 15.7143 1.55469 15.7143 3.28571C15.7143 5.01674 17.1261 6.42857 18.8571 6.42857C20.5882 6.42857 22 5.01674 22 3.28571Z" fill="#898989"/></svg>