<svg width="22" height="18" viewBox="0 0 22 18" fill="none" xmlns="http://www.w3.org/2000/svg"><path d="M10.9018 13.6786H10.2143V12.5H9.03571V11.8125L10.4598 10.3884L12.3259 12.2545L10.9018 13.6786ZM16.3036 4.83928C16.4141 4.94978 16.4018 5.13393 16.2913 5.24442L11.9944 9.54129C11.8839 9.65179 11.6998 9.66406 11.5893 9.55357C11.4788 9.44308 11.4911 9.25893 11.6016 9.14844L15.8984 4.85156C16.0089 4.74107 16.1931 4.72879 16.3036 4.83928ZM17.2857 12.1317C17.2857 11.9721 17.1875 11.8371 17.0402 11.7757C16.8929 11.7143 16.7333 11.7388 16.6105 11.8616L15.8248 12.6473C15.7511 12.721 15.7143 12.8192 15.7143 12.9174V14.4643C15.7143 15.5446 14.8304 16.4286 13.75 16.4286H3.53571C2.45536 16.4286 1.57143 15.5446 1.57143 14.4643V4.25C1.57143 3.16964 2.45536 2.28571 3.53571 2.28571H13.75C13.9342 2.28571 14.1183 2.31027 14.3025 2.35937C14.4375 2.40848 14.5848 2.37165 14.6953 2.26116L15.2969 1.6596C15.3951 1.56138 15.4319 1.43862 15.4074 1.30357C15.3828 1.1808 15.2969 1.07031 15.1864 1.0212C14.7321 0.812499 14.2411 0.714285 13.75 0.714285H3.53571C1.58371 0.714285 0 2.29799 0 4.25V14.4643C0 16.4163 1.58371 18 3.53571 18H13.75C15.702 18 17.2857 16.4163 17.2857 14.4643V12.1317ZM16.1071 3.07143L7.85714 11.3214V14.8571H11.3929L19.6429 6.60714L16.1071 3.07143ZM21.558 4.69196C22.0123 4.23772 22.0123 3.47656 21.558 3.02232L19.692 1.15625C19.2377 0.702008 18.4766 0.702008 18.0223 1.15625L16.8929 2.28571L20.4286 5.82143L21.558 4.69196Z" fill="#898989"/></svg>