<svg width="19" height="20" viewBox="0 0 19 20" fill="none" xmlns="http://www.w3.org/2000/svg"><path d="M6.28571 14.8571C6.28571 15.7288 5.58594 16.4286 4.71429 16.4286C3.84263 16.4286 3.14286 15.7288 3.14286 14.8571C3.14286 13.9855 3.84263 13.2857 4.71429 13.2857C5.58594 13.2857 6.28571 13.9855 6.28571 14.8571ZM10.5949 16.0112C10.6071 16.1217 10.558 16.2321 10.4844 16.3058C10.4107 16.3795 10.3125 16.4286 10.202 16.4286H8.63058C8.42188 16.4286 8.25 16.269 8.23772 16.0603C8.05357 13.5435 6.0279 11.5179 3.51116 11.3337C3.30246 11.3214 3.14286 11.1496 3.14286 10.9408V9.36942C3.14286 9.25893 3.19196 9.16071 3.26562 9.08705C3.33929 9.01339 3.44978 8.96429 3.56027 8.97656C7.36607 9.18527 10.3862 12.2054 10.5949 16.0112ZM15.3092 16.0234C15.3214 16.1339 15.2846 16.2321 15.1987 16.3058C15.125 16.3795 15.0268 16.4286 14.9163 16.4286H13.3449C13.1362 16.4286 12.9643 16.2567 12.952 16.048C12.7679 10.9531 8.6183 6.80357 3.52344 6.61942C3.31473 6.60714 3.14286 6.43527 3.14286 6.22656V4.65513C3.14286 4.54464 3.19196 4.44643 3.26562 4.37277C3.33929 4.28683 3.42522 4.25 3.54799 4.26228C9.93192 4.47098 15.1004 9.63951 15.3092 16.0234ZM18.8571 4.25C18.8571 2.29799 17.2734 0.714285 15.3214 0.714285H3.53571C1.58371 0.714285 0 2.29799 0 4.25V16.0357C0 17.9877 1.58371 19.5714 3.53571 19.5714H15.3214C17.2734 19.5714 18.8571 17.9877 18.8571 16.0357V4.25Z" fill="#fff"/></svg>