<svg width="21" height="21" viewBox="0 0 21 21" fill="none" xmlns="http://www.w3.org/2000/svg"><path d="M20.4286 8.08594C20.4286 7.71763 20.0357 7.57031 19.7411 7.5212L13.5781 6.625L10.8158 1.03906C10.7054 0.805803 10.4967 0.535714 10.2143 0.535714C9.93192 0.535714 9.72321 0.805803 9.61272 1.03906L6.85045 6.625L0.6875 7.5212C0.38058 7.57031 0 7.71763 0 8.08594C0 8.30692 0.159598 8.51562 0.30692 8.67522L4.77567 13.0212L3.71987 19.1596C3.70759 19.2455 3.69531 19.3192 3.69531 19.4051C3.69531 19.7243 3.85491 20.019 4.21094 20.019C4.38281 20.019 4.54241 19.9576 4.70201 19.8717L10.2143 16.9743L15.7266 19.8717C15.8739 19.9576 16.0458 20.019 16.2176 20.019C16.5737 20.019 16.721 19.7243 16.721 19.4051C16.721 19.3192 16.721 19.2455 16.7087 19.1596L15.6529 13.0212L20.1094 8.67522C20.269 8.51562 20.4286 8.30692 20.4286 8.08594Z" fill="#898989"/></svg>