<svg width="22" height="16" viewBox="0 0 22 16" fill="none" xmlns="http://www.w3.org/2000/svg"><path d="M8.7288 10.9911V4.81585L14.6708 7.92187L8.7288 10.9911ZM11 0.408482C6.37165 0.408482 3.30246 0.629464 3.30246 0.629464C2.87277 0.678571 1.92746 0.678571 1.09263 1.5625C1.09263 1.5625 0.417411 2.22545 0.220982 3.74777C-0.0122768 5.5279 0 7.30804 0 7.30804V8.97768C0 8.97768 -0.0122768 10.7578 0.220982 12.5379C0.417411 14.048 1.09263 14.7232 1.09263 14.7232C1.92746 15.5949 3.03237 15.5703 3.52344 15.6562C3.52344 15.6562 5.27902 15.8281 11 15.8772C15.6283 15.8772 18.6975 15.644 18.6975 15.644C19.1272 15.5949 20.0725 15.5949 20.9074 14.7232C20.9074 14.7232 21.5826 14.048 21.779 12.5379C22.0123 10.7578 22 8.97768 22 8.97768V7.30804C22 7.30804 22.0123 5.5279 21.779 3.74777C21.5826 2.22545 20.9074 1.5625 20.9074 1.5625C20.0725 0.678571 19.1272 0.678571 18.6975 0.629464C18.6975 0.629464 15.6283 0.408482 11 0.408482Z" fill="#fff"/></svg>