<?xml version="1.0" standalone="no"?>
<!DOCTYPE svg PUBLIC "-//W3C//DTD SVG 20010904//EN"
 "http://www.w3.org/TR/2001/REC-SVG-20010904/DTD/svg10.dtd">
<svg version="1.0" xmlns="http://www.w3.org/2000/svg"
 width="624.000000pt" height="624.000000pt" viewBox="0 0 624.000000 624.000000"
 preserveAspectRatio="xMidYMid meet">
<metadata>
Created by potrace 1.11, written by Peter Selinger 2001-2013
</metadata>
<g transform="translate(0.000000,624.000000) scale(0.100000,-0.100000)"
fill="#000000" stroke="none">
<path d="M10 3125 l0 -1065 3105 0 3105 0 0 1065 0 1065 -3105 0 -3105 0 0
-1065z m528 359 c17 -10 39 -29 50 -43 24 -34 44 -109 40 -152 l-3 -34 -80 0
-80 0 -7 48 c-12 86 -62 114 -98 55 -18 -30 -20 -51 -20 -206 0 -187 10 -234
50 -247 38 -12 62 23 69 102 l6 68 73 3 c97 4 105 -3 96 -82 -12 -112 -63
-181 -153 -206 -90 -25 -207 -1 -258 52 -52 55 -63 106 -63 303 0 150 3 182
20 228 23 62 70 111 120 126 54 16 201 7 238 -15z m2084 16 c76 -22 119 -77
133 -173 10 -67 -1 -77 -86 -77 -75 0 -89 10 -89 67 0 36 -25 73 -50 73 -10 0
-28 -12 -39 -26 -20 -25 -21 -40 -21 -219 0 -179 1 -194 21 -219 44 -56 88
-17 98 87 l6 62 60 3 c97 5 105 1 105 -61 0 -99 -40 -175 -113 -214 -24 -13
-55 -18 -122 -18 -78 0 -96 3 -135 25 -63 35 -88 86 -102 202 -13 115 -3 305
19 361 29 73 69 114 127 128 47 11 146 10 188 -1z m3324 -11 c50 -24 83 -65
110 -134 16 -42 19 -75 18 -210 0 -141 -3 -167 -23 -217 -67 -172 -276 -197
-367 -43 -41 71 -59 211 -44 345 13 119 37 183 84 229 56 54 148 67 222 30z
m-4831 -64 l0 -70 -115 -5 -115 -5 -3 -34 c-8 -77 -4 -80 111 -83 l102 -3 3
-67 3 -68 -91 0 c-119 0 -130 -6 -130 -73 0 -29 5 -58 12 -65 8 -8 48 -12 113
-12 65 0 105 -4 113 -12 14 -14 16 -96 3 -116 -12 -20 -400 -20 -412 -1 -14
23 -11 663 3 677 9 9 64 12 208 10 l195 -3 0 -70z m285 60 c6 -8 16 -29 20
-47 47 -190 73 -276 90 -293 20 -19 20 -19 20 163 0 208 -6 196 101 190 l54
-3 3 -344 c1 -216 -1 -347 -7 -351 -16 -9 -172 -3 -183 8 -5 5 -14 25 -18 43
-5 19 -16 61 -25 94 -9 33 -22 83 -29 110 -15 57 -45 120 -53 111 -3 -3 -5
-81 -4 -173 1 -92 -3 -174 -8 -182 -6 -10 -29 -15 -68 -16 -101 -3 -93 -32
-93 355 0 261 3 339 13 343 6 3 49 6 93 6 60 1 85 -3 94 -14z m1805 4 c3 -3
14 -44 26 -90 11 -46 41 -167 65 -269 25 -102 52 -213 61 -247 21 -84 17 -88
-96 -87 -51 1 -94 4 -97 7 -3 3 -10 25 -15 48 -14 62 -24 69 -88 69 -65 0 -81
-11 -81 -55 0 -55 -17 -67 -103 -70 -91 -3 -105 6 -88 57 6 18 32 119 56 223
83 349 97 400 108 414 9 10 38 12 129 9 65 -2 120 -6 123 -9z m404 2 c7 -5 19
-33 26 -62 35 -140 73 -281 78 -286 21 -20 27 22 27 177 0 195 -7 184 105 178
l60 -3 3 -339 c1 -198 -2 -343 -7 -350 -8 -9 -115 -13 -178 -7 -11 1 -34 63
-68 191 -34 123 -51 171 -60 171 -6 -1 -11 -72 -13 -173 -1 -94 -7 -177 -12
-183 -11 -13 -129 -13 -149 -1 -16 10 -15 668 1 684 14 14 166 16 187 3z m996
-16 c0 -19 -7 -20 -115 -22 -176 -4 -161 8 -158 -136 l3 -122 122 -3 c93 -2
124 -6 134 -18 22 -26 -3 -33 -131 -36 l-125 -3 -3 -139 c-2 -105 1 -141 10
-148 7 -4 73 -8 146 -8 123 0 132 -1 132 -19 0 -10 -7 -22 -16 -25 -31 -12
-309 -7 -322 6 -9 9 -12 100 -12 348 0 185 3 340 7 344 4 3 79 5 167 4 153 -3
161 -4 161 -23z m125 13 c7 -7 40 -67 74 -133 35 -66 69 -120 77 -120 7 0 38
48 69 106 69 132 87 159 106 159 26 0 26 -27 1 -72 -61 -108 -137 -259 -137
-274 0 -15 59 -129 126 -247 37 -63 50 -102 37 -110 -24 -14 -53 21 -122 147
-40 75 -78 135 -84 133 -13 -4 -43 -54 -107 -174 -46 -88 -72 -119 -89 -108
-21 12 -11 38 74 193 83 152 94 178 76 197 -16 19 -151 285 -151 300 0 18 35
20 50 3z m716 -7 c53 -24 80 -60 95 -125 21 -95 -18 -193 -92 -231 -16 -9 -69
-18 -119 -22 -75 -5 -93 -9 -101 -25 -6 -10 -9 -75 -8 -144 2 -127 -4 -150
-34 -138 -15 6 -17 38 -17 348 0 189 3 346 7 349 3 4 56 7 117 7 86 0 120 -5
152 -19z m-5168 -1033 c7 -7 12 -24 12 -39 0 -45 17 -42 32 3 l13 43 50 0 50
0 3 -139 c2 -93 -1 -143 -9 -152 -18 -22 -60 -18 -66 6 l-6 21 -19 -21 c-22
-24 -51 -26 -68 -5 -12 14 -15 14 -30 0 -20 -18 -42 -19 -58 -3 -13 13 -18
279 -5 291 11 12 88 8 101 -5z m277 -143 l0 -150 -34 0 c-31 0 -36 4 -44 35
-10 41 -5 239 7 258 4 8 21 12 39 10 l32 -3 0 -150z m145 113 c19 -42 20 -42
20 -12 0 36 16 54 47 54 35 0 43 -29 43 -155 0 -132 -7 -155 -51 -155 -24 0
-34 7 -52 38 -22 37 -22 37 -25 10 -4 -33 -24 -51 -54 -46 -23 3 -23 5 -26
143 -1 76 0 145 2 152 3 7 21 13 41 13 33 0 38 -4 55 -42z m220 16 c6 -14 10
-72 10 -129 0 -121 -9 -155 -43 -155 -42 0 -47 16 -47 160 0 75 3 140 7 143 3
4 19 7 35 7 21 0 31 -6 38 -26z m127 18 c7 -4 16 -19 22 -32 10 -26 11 -25 27
28 4 15 60 16 70 0 9 -15 9 -272 -1 -287 -3 -6 -22 -11 -41 -11 -31 0 -37 4
-51 38 l-16 37 -12 -35 c-8 -24 -19 -36 -34 -38 -45 -7 -51 10 -51 158 0 75 3
140 7 143 9 9 65 9 80 -1z m337 -23 c28 -33 33 -58 14 -77 -9 -9 -9 -15 0 -24
14 -14 16 -146 3 -166 -4 -8 -19 -13 -32 -11 -13 1 -36 -1 -50 -5 -35 -10 -84
15 -104 54 -18 35 -20 161 -4 193 26 51 51 67 100 67 40 0 51 -4 73 -31z
m2249 13 c25 -28 38 -71 27 -91 -20 -39 -65 -35 -81 6 -15 40 -27 17 -27 -52
-1 -72 10 -89 30 -48 15 33 58 42 78 18 21 -25 -4 -91 -43 -115 -39 -24 -59
-25 -98 -4 -78 40 -92 212 -24 280 31 30 113 34 138 6z m237 -7 c21 -23 25
-37 28 -118 3 -106 -6 -133 -59 -161 -44 -24 -82 -16 -121 26 -27 29 -28 35
-28 123 0 86 2 96 26 124 23 27 32 31 78 31 43 0 57 -4 76 -25z m161 -11 l15
-32 10 32 c8 27 13 31 44 31 l35 0 3 -139 c3 -154 -2 -169 -52 -164 -25 2 -35
11 -51 43 l-19 40 -6 -40 c-5 -38 -7 -40 -40 -40 l-35 0 -3 140 c-1 76 0 145
3 153 3 9 18 12 42 10 31 -2 41 -9 54 -34z m317 -3 c12 -19 21 -42 20 -50 -4
-22 -61 -26 -78 -7 -16 20 -30 21 -30 2 0 -8 12 -17 26 -20 14 -4 39 -17 55
-28 24 -18 29 -29 29 -64 0 -59 -7 -72 -53 -95 -66 -34 -138 -7 -152 58 -5 25
-2 35 16 52 21 19 21 22 6 39 -25 28 -22 100 5 129 19 20 30 23 77 21 50 -3
57 -6 79 -37z m231 17 c11 -30 -3 -56 -31 -60 -22 -3 -23 -8 -28 -113 l-5
-110 -35 0 -35 0 -5 110 c-5 106 -6 109 -30 115 -16 4 -26 14 -28 29 -7 47 1
51 98 51 85 0 91 -1 99 -22z m189 7 c27 -20 42 -71 30 -105 -6 -15 -5 -49 3
-91 14 -80 9 -99 -27 -99 -40 0 -64 27 -64 72 0 21 -4 38 -10 38 -5 0 -10 -19
-10 -43 0 -48 -13 -67 -47 -67 -44 0 -56 38 -51 164 3 74 9 120 17 130 18 22
128 22 159 1z m152 -99 c3 -75 9 -111 18 -114 9 -3 12 22 12 100 0 110 7 128
46 128 40 0 46 -21 42 -150 -3 -116 -4 -122 -28 -140 -37 -29 -82 -35 -119
-16 -49 26 -61 61 -61 179 0 114 7 130 55 125 l30 -3 5 -109z m324 83 c32 -38
34 -84 6 -99 -29 -15 -57 -4 -64 26 -13 50 -31 20 -31 -51 0 -75 16 -96 34
-45 9 28 14 31 43 28 30 -3 33 -6 36 -42 6 -73 -72 -124 -141 -91 -50 23 -62
54 -62 156 1 84 2 90 30 119 24 25 36 30 76 30 40 0 51 -4 73 -31z m236 11
c15 -28 4 -58 -23 -62 -21 -3 -22 -9 -25 -102 -3 -105 -11 -126 -46 -126 -39
0 -46 18 -46 122 0 95 -1 99 -24 108 -31 12 -39 26 -32 56 6 23 9 24 96 24 80
0 90 -2 100 -20z m108 8 c8 -8 12 -54 12 -143 0 -137 -5 -155 -44 -155 -47 1
-51 12 -51 147 0 70 3 136 7 146 9 20 58 23 76 5z m204 0 c37 -31 48 -62 48
-141 0 -89 -14 -123 -62 -152 -33 -19 -73 -16 -112 11 -53 34 -59 205 -9 264
21 26 32 30 72 30 26 0 54 -6 63 -12z m175 -20 c15 -28 18 -30 21 -13 6 30 22
45 46 45 41 0 46 -17 46 -155 0 -89 -4 -135 -12 -143 -28 -28 -98 -4 -98 34 0
8 -4 14 -10 14 -5 0 -10 -8 -10 -18 0 -24 -19 -42 -45 -42 -40 0 -45 18 -45
155 0 144 4 155 57 155 26 0 36 -6 50 -32z"/>
<path d="M5810 3453 c-26 -10 -61 -47 -81 -85 -28 -54 -41 -199 -29 -310 18
-158 63 -220 160 -220 62 0 92 21 127 92 27 53 28 60 28 220 -1 155 -2 168
-25 215 -39 77 -112 113 -180 88z"/>
<path d="M3047 3293 c-3 -10 -8 -40 -11 -68 -4 -27 -11 -71 -17 -98 -13 -56
-2 -77 40 -77 50 0 54 9 42 96 -19 130 -42 193 -54 147z"/>
<path d="M5231 3432 c-6 -12 -11 -71 -11 -136 0 -135 6 -146 78 -146 62 0 122
17 149 42 32 29 47 101 33 158 -17 70 -53 93 -156 98 -75 4 -83 3 -93 -16z"/>
<path d="M1294 2365 c-8 -21 3 -34 26 -28 16 4 18 9 9 24 -12 23 -27 25 -35 4z"/>
<path d="M1292 2248 c6 -18 28 -21 28 -4 0 9 -7 16 -16 16 -9 0 -14 -5 -12
-12z"/>
<path d="M3780 2305 c0 -60 3 -75 15 -75 12 0 15 15 15 75 0 60 -3 75 -15 75
-12 0 -15 -15 -15 -75z"/>
<path d="M4252 2246 c1 -10 8 -17 13 -17 15 1 12 24 -3 29 -9 3 -13 -2 -10
-12z"/>
<path d="M4690 2360 c0 -13 5 -20 13 -17 6 2 12 10 12 17 0 7 -6 15 -12 18 -8
2 -13 -5 -13 -18z"/>
<path d="M5720 2305 c0 -57 3 -76 13 -72 8 2 12 26 12 72 0 46 -4 70 -12 73
-10 3 -13 -16 -13 -73z"/>
</g>
</svg>
