<svg width="24" height="22" viewBox="0 0 24 22" fill="none" xmlns="http://www.w3.org/2000/svg">
<path d="M11 11.1429C11 12.8739 9.58817 14.2857 7.85714 14.2857C6.12612 14.2857 4.71429 12.8739 4.71429 11.1429C4.71429 9.41183 6.12612 8 7.85714 8C9.58817 8 11 9.41183 11 11.1429ZM20.4286 17.4286C20.4286 18.2879 19.7288 19 18.8571 19C17.9978 19 17.2857 18.3002 17.2857 17.4286C17.2857 16.5692 17.9978 15.8571 18.8571 15.8571C19.7165 15.8571 20.4286 16.5692 20.4286 17.4286ZM20.4286 4.85714C20.4286 5.71652 19.7288 6.42857 18.8571 6.42857C17.9978 6.42857 17.2857 5.72879 17.2857 4.85714C17.2857 3.99777 17.9978 3.28571 18.8571 3.28571C19.7165 3.28571 20.4286 3.99777 20.4286 4.85714ZM15.7143 10.0257C15.7143 9.85379 15.5915 9.6942 15.4196 9.65737L13.5536 9.375C13.4431 9.03125 13.2958 8.69978 13.1362 8.3683C13.4799 7.88951 13.8482 7.44754 14.2042 6.96875C14.2533 6.89509 14.2902 6.82143 14.2902 6.73549C14.2902 6.39174 12.8415 5.06585 12.5223 4.7712C12.4487 4.70982 12.3627 4.67299 12.2645 4.67299C12.1786 4.67299 12.0926 4.69754 12.019 4.75893L10.5703 5.85156C10.2757 5.70424 9.96875 5.5692 9.64955 5.47098L9.36719 3.59263C9.34263 3.42076 9.17076 3.28571 8.99888 3.28571H6.7154C6.54353 3.28571 6.39621 3.40848 6.3471 3.58036C6.1875 4.18192 6.12612 4.85714 6.06473 5.47098C5.73326 5.58147 5.42634 5.70424 5.11942 5.86384L3.70759 4.75893C3.63393 4.70982 3.54799 4.67299 3.44978 4.67299C3.09375 4.67299 1.71875 6.15848 1.47321 6.48995C1.41183 6.56362 1.38728 6.64955 1.38728 6.73549C1.38728 6.82143 1.42411 6.90737 1.47321 6.98103C1.86607 7.44754 2.23438 7.90178 2.57813 8.39286C2.41853 8.69978 2.28348 9.0067 2.18527 9.32589L0.282366 9.62054C0.122768 9.64509 0 9.82924 0 9.98884V12.26C0 12.4319 0.122768 12.5915 0.294643 12.6161L2.16071 12.9107C2.27121 13.2545 2.41853 13.5859 2.5904 13.9174C2.23438 14.3962 1.86607 14.8504 1.51004 15.317C1.46094 15.3906 1.42411 15.4643 1.42411 15.5502C1.42411 15.9062 2.87277 17.2199 3.19196 17.5145C3.26562 17.5759 3.35156 17.6127 3.44978 17.6127C3.53571 17.6127 3.63393 17.5882 3.69531 17.5268L5.14397 16.4342C5.43862 16.5815 5.74554 16.7165 6.06473 16.8147L6.3471 18.6931C6.37165 18.865 6.54353 19 6.7154 19H8.99888C9.17076 19 9.31808 18.8772 9.36719 18.7054C9.52679 18.1038 9.58817 17.4286 9.64955 16.8025C9.98103 16.7042 10.2879 16.5815 10.5949 16.4219L12.0067 17.5268C12.0804 17.5759 12.1663 17.6127 12.2645 17.6127C12.6205 17.6127 13.9955 16.115 14.2411 15.7835C14.3025 15.7221 14.327 15.6362 14.327 15.5502C14.327 15.452 14.2902 15.3783 14.2411 15.3047C13.8482 14.8382 13.4799 14.3839 13.1362 13.8929C13.2958 13.5859 13.4308 13.279 13.529 12.9598L15.4319 12.6652C15.5915 12.6406 15.7143 12.4565 15.7143 12.2969V10.0257ZM23.5714 16.5692C23.5714 16.385 21.9877 16.2132 21.7422 16.1886C21.644 15.9676 21.5212 15.7467 21.3739 15.5502C21.4844 15.3047 22 14.077 22 13.856C22 13.8315 21.9877 13.7946 21.9509 13.7701C21.8036 13.6842 20.49 12.9107 20.4286 12.9107L20.3549 12.9353C19.9375 13.3527 19.5692 13.8315 19.2254 14.3103C19.1027 14.298 18.9799 14.2857 18.8571 14.2857C18.7344 14.2857 18.6116 14.298 18.4888 14.3103C18.3661 14.1261 17.4453 12.9107 17.2857 12.9107C17.2243 12.9107 15.9107 13.6964 15.7634 13.7701C15.7266 13.7946 15.7143 13.8315 15.7143 13.856C15.7143 14.0647 16.2299 15.3047 16.3404 15.5502C16.1931 15.7467 16.0703 15.9676 15.9721 16.1886C15.7266 16.2132 14.1429 16.385 14.1429 16.5692V18.2879C14.1429 18.4721 15.7266 18.644 15.9721 18.6685C16.0703 18.9018 16.1931 19.1105 16.3404 19.3069C16.2299 19.5525 15.7143 20.7924 15.7143 21.0011C15.7143 21.0257 15.7266 21.0625 15.7634 21.0871C15.9107 21.173 17.2243 21.9587 17.2857 21.9587C17.4453 21.9587 18.3661 20.731 18.4888 20.5469C18.6116 20.5592 18.7344 20.5714 18.8571 20.5714C18.9799 20.5714 19.1027 20.5592 19.2254 20.5469C19.3482 20.731 20.269 21.9587 20.4286 21.9587C20.49 21.9587 21.8036 21.173 21.9509 21.0871C21.9877 21.0625 22 21.0379 22 21.0011C22 20.7801 21.4844 19.5525 21.3739 19.3069C21.5212 19.1105 21.644 18.9018 21.7422 18.6685C21.9877 18.644 23.5714 18.4721 23.5714 18.2879V16.5692ZM23.5714 3.99777C23.5714 3.81362 21.9877 3.64174 21.7422 3.61719C21.644 3.3962 21.5212 3.17522 21.3739 2.97879C21.4844 2.73326 22 1.50558 22 1.2846C22 1.26004 21.9877 1.22321 21.9509 1.19866C21.8036 1.11272 20.49 0.339285 20.4286 0.339285L20.3549 0.363839C19.9375 0.781249 19.5692 1.26004 19.2254 1.73884C19.1027 1.72656 18.9799 1.71428 18.8571 1.71428C18.7344 1.71428 18.6116 1.72656 18.4888 1.73884C18.3661 1.55469 17.4453 0.339285 17.2857 0.339285C17.2243 0.339285 15.9107 1.125 15.7634 1.19866C15.7266 1.22321 15.7143 1.26004 15.7143 1.2846C15.7143 1.4933 16.2299 2.73326 16.3404 2.97879C16.1931 3.17522 16.0703 3.3962 15.9721 3.61719C15.7266 3.64174 14.1429 3.81362 14.1429 3.99777V5.71652C14.1429 5.90067 15.7266 6.07254 15.9721 6.0971C16.0703 6.33036 16.1931 6.53906 16.3404 6.73549C16.2299 6.98103 15.7143 8.22098 15.7143 8.42969C15.7143 8.45424 15.7266 8.49107 15.7634 8.51562C15.9107 8.60156 17.2243 9.38728 17.2857 9.38728C17.4453 9.38728 18.3661 8.1596 18.4888 7.97545C18.6116 7.98772 18.7344 8 18.8571 8C18.9799 8 19.1027 7.98772 19.2254 7.97545C19.3482 8.1596 20.269 9.38728 20.4286 9.38728C20.49 9.38728 21.8036 8.60156 21.9509 8.51562C21.9877 8.49107 22 8.46652 22 8.42969C22 8.2087 21.4844 6.98103 21.3739 6.73549C21.5212 6.53906 21.644 6.33036 21.7422 6.0971C21.9877 6.07254 23.5714 5.90067 23.5714 5.71652V3.99777Z" fill="#898989"/>
</svg>
