<svg width="18" height="21" viewBox="0 0 18 21" fill="none" xmlns="http://www.w3.org/2000/svg">
<path d="M17.1016 15.0592C16.3772 14.8382 15.7266 14.3225 15.1618 13.5123C14.5971 12.702 14.3147 11.7812 14.3147 10.7746C14.3147 9.84152 14.5848 8.99442 15.1127 8.23326C15.4074 7.80357 15.8739 7.32478 16.5123 6.7846C16.0949 6.26897 15.6652 5.85156 15.2355 5.55692C14.4743 5.02902 13.6027 4.75893 12.6205 4.75893C12.019 4.75893 11.3069 4.90625 10.4967 5.17634C9.68638 5.4587 9.0971 5.59375 8.74107 5.59375C8.45871 5.59375 7.89397 5.47098 7.04688 5.22545C6.1875 4.97991 5.47545 4.85714 4.87388 4.85714C3.46205 4.85714 2.30804 5.44643 1.38728 6.625C0.466518 7.81585 0 9.33817 0 11.2165C0 13.2299 0.613839 15.2801 1.80469 17.3917C3.02009 19.5033 4.23549 20.5714 5.5 20.5714C5.90513 20.5714 6.44531 20.4364 7.12054 20.154C7.78348 19.8839 8.37277 19.7489 8.86384 19.7489C9.36719 19.7489 9.9933 19.8717 10.7176 20.1417C11.4542 20.3996 12.019 20.5346 12.4364 20.5346C13.4799 20.5346 14.5357 19.7366 15.5915 18.1283C16.3036 17.0603 16.7946 16.029 17.1016 15.0592ZM12.4855 0.658482C12.4855 0.572544 12.4732 0.498883 12.4732 0.412946C12.4609 0.339285 12.4364 0.253347 12.4118 0.142856C10.9877 0.474329 9.95647 1.07589 9.34263 1.95982C8.7288 2.84375 8.4096 3.89955 8.38505 5.11495C8.96205 5.06585 9.37946 4.99219 9.66183 4.90625C10.1038 4.75893 10.5458 4.46428 10.9877 4.02232C11.5033 3.5067 11.8839 2.94196 12.1295 2.32812C12.3627 1.72656 12.4855 1.16183 12.4855 0.658482Z" fill="white"/>
</svg>
