<svg width="19" height="20" viewBox="0 0 19 20" fill="none" xmlns="http://www.w3.org/2000/svg">
<path d="M2.9096 16.5022V7.98214H5.74554V16.5022H2.9096ZM5.92969 5.35491C5.92969 6.16518 5.31585 6.82812 4.32143 6.82812H4.30915C3.35156 6.82812 2.73772 6.16518 2.73772 5.35491C2.73772 4.52009 3.37612 3.8817 4.34598 3.8817C5.31585 3.8817 5.91741 4.52009 5.92969 5.35491ZM13.1116 16.5022V11.9475C13.1116 10.7935 12.7065 10.0201 11.6875 10.0201C10.9018 10.0201 10.4353 10.548 10.2266 11.0513C10.1529 11.2355 10.1406 11.4933 10.1406 11.7388V16.5022H7.30469C7.34152 8.78013 7.30469 7.98214 7.30469 7.98214H10.1406V9.2221H10.1161C10.4844 8.63281 11.1596 7.78571 12.6819 7.78571C14.548 7.78571 15.9475 9.00112 15.9475 11.6161V16.5022H13.1116ZM18.8571 4.25C18.8571 2.29799 17.2734 0.714285 15.3214 0.714285H3.53571C1.58371 0.714285 0 2.29799 0 4.25V16.0357C0 17.9877 1.58371 19.5714 3.53571 19.5714H15.3214C17.2734 19.5714 18.8571 17.9877 18.8571 16.0357V4.25Z" fill="#898989"/>
</svg>
