<svg width="20" height="16" viewBox="0 0 20 16" fill="none" xmlns="http://www.w3.org/2000/svg">
<path d="M19.8884 2.15178C19.1763 2.4587 18.4029 2.67969 17.6049 2.76562C18.4275 2.27455 19.0536 1.50112 19.3482 0.580357C18.5871 1.0346 17.7277 1.36607 16.8315 1.53795C16.1071 0.764508 15.0759 0.285714 13.9342 0.285714C11.7366 0.285714 9.96875 2.06585 9.96875 4.25112C9.96875 4.55803 10.0056 4.86495 10.067 5.1596C6.77679 4.98772 3.84263 3.41629 1.89063 1.01004C1.54688 1.59933 1.35045 2.27455 1.35045 3.01116C1.35045 4.38616 2.05022 5.60156 3.1183 6.31362C2.46763 6.28906 1.85379 6.10491 1.32589 5.81027C1.32589 5.82254 1.32589 5.8471 1.32589 5.85937C1.32589 7.78683 2.68862 9.38281 4.50558 9.75112C4.17411 9.83705 3.81808 9.88616 3.46205 9.88616C3.20424 9.88616 2.95871 9.86161 2.71317 9.82478C3.21652 11.3962 4.67746 12.5379 6.42076 12.5748C5.05804 13.6429 3.35156 14.269 1.49777 14.269C1.16629 14.269 0.859375 14.2567 0.540179 14.2199C2.29576 15.3493 4.38281 16 6.62946 16C13.9219 16 17.9118 9.95982 17.9118 4.71763C17.9118 4.54576 17.9118 4.37388 17.8996 4.20201C18.673 3.63728 19.3482 2.9375 19.8884 2.15178Z" fill="white"/>
</svg>
