<svg width="12" height="12" viewBox="0 0 12 12" fill="none" xmlns="http://www.w3.org/2000/svg"><path d="M11.3359 -5.96046e-07H0.664063C0.296875 -5.96046e-07 0 0.296875 0 0.664062V11.3359C0 11.7031 0.296875 12 0.664063 12H6.40625V7.35156H4.84375V5.53906H6.40625V4.20312C6.40625 2.65625 7.35938 1.8125 8.74219 1.8125C9.39844 1.8125 9.96875 1.85937 10.1328 1.88281V3.5L9.17969 3.50781C8.42188 3.50781 8.28125 3.85937 8.28125 4.38281V5.53906H10.0703L9.83594 7.35156H8.28125V12H11.3359C11.7031 12 12 11.7031 12 11.3359V0.664062C12 0.296875 11.7031 -5.96046e-07 11.3359 -5.96046e-07Z" fill="#fff"/></svg>