<svg width="11" height="16" viewBox="0 0 11 16" fill="none" xmlns="http://www.w3.org/2000/svg"><path d="M7.07719 9.26531C6.72738 9.44412 6.36521 9.57912 5.99861 9.66624L8.66048 14.8736C8.80271 15.1518 9.15112 15.2645 9.42937 15.1223L10.447 14.6021C10.7252 14.4599 10.8379 14.1114 10.6957 13.8332L8.03384 8.62588C7.74852 8.872 7.42699 9.0865 7.07719 9.26531ZM2.65565 0.615605C0.405775 1.76569 -0.484162 4.5169 0.665924 6.76678C1.81601 9.01665 4.56722 9.90659 6.8171 8.7565C9.06697 7.60642 9.95691 4.85521 8.80682 2.60533C7.65674 0.355456 4.90553 -0.534481 2.65565 0.615605ZM3.56597 2.39643C2.3019 3.04259 1.80058 4.5924 2.44675 5.85646C2.5199 5.99956 2.46549 6.16776 2.32239 6.24091C2.17929 6.31406 2.01109 6.25965 1.93794 6.11655C1.14954 4.57423 1.76356 2.67602 3.30588 1.88762C3.44898 1.81447 3.61718 1.86888 3.69033 2.01198C3.76348 2.15508 3.70907 2.32328 3.56597 2.39643Z" fill="#fff"/></svg>